<?xml version="1.0" encoding="UTF-8"?>
<!DOCTYPE svg PUBLIC "-//W3C//DTD SVG 1.1//EN" "http://www.w3.org/Graphics/SVG/1.1/DTD/svg11.dtd">
<!-- Creator: CorelDRAW 2020 (64 Bit) -->
<svg xmlns="http://www.w3.org/2000/svg" fill='black' width="100%" height="100%" version="1.1"
viewBox="55 55 90 110">
 <g id="Camada_x0020_1">
  <metadata id="CorelCorpID_0Corel-Layer"/>
  <path d="M79.15 90.51c0,2.86 1.91,7.01 0.57,12.41 -1.12,4.5 0.88,10.54 3.29,14.22 0.79,1.2 1.31,5.36 2.4,7.68 0.78,1.69 0.99,2.63 1.05,4.75 0.03,1.13 0.23,1.18 0.23,2.01 0,0.89 -0.23,0.82 -0.23,2.02 -2.02,0.47 -3.93,1.4 -5.85,1.96 -2.87,0.82 -5.75,2.12 -8.62,2.97 -1.25,0.37 -1.95,0.68 -2.95,1.08l-5.76 2.3c-0.34,-0.52 -0.68,-0.88 -1.08,-1.44l-0.8 -1.22c-0.04,-0.06 -0.16,-0.23 -0.21,-0.29l-0.85 -1.16c-1.24,-1.51 -2.14,-3.28 -3.02,-5.04 -0.33,-0.65 -0.57,-1.11 -0.84,-1.69 -0.14,-0.31 -0.2,-0.46 -0.39,-0.87 -0.08,-0.18 -0.15,-0.34 -0.23,-0.52 -0.1,-0.26 -0.1,-0.3 -0.19,-0.56l-1.32 -3.73c-3,-10.3 -2.81,-20.56 0.77,-30.69l6.19 -11.7c1.19,-1.75 2.62,-3.21 4.04,-4.78l0.47 -0.54c0.04,-0.03 0.09,-0.09 0.13,-0.12l6.73 -5.62c1.99,-1.46 4.1,-2.69 6.37,-3.71 0.9,-0.4 0.94,-0.69 1.91,-0.98 2.5,-0.73 3.69,-1.72 8.62,-2.84 6.35,-1.45 14.35,-1.5 20.97,0l7.1 2.26c0.02,0.01 0.31,0.09 0.41,0.12 2.5,0.8 6.72,3.16 8.71,4.57l4.98 3.84c2.01,1.85 4.1,3.91 5.75,6.1 3.01,4.02 2.51,3.74 4.69,7.16 1.19,1.87 2.08,4.04 2.78,6.15l0.08 0.26c0.12,0.39 -0.1,-0.18 0.14,0.43 4.14,10.67 3.53,23.27 -0.71,33.83 -1.16,2.91 -2.52,5.93 -4.31,8.28 -3.82,5 -2.19,4.67 -6.5,3.15 -3.15,-1.12 -6.93,-2.75 -10.13,-3.62l-0.47 -0.14c-0.63,-0.19 -1.11,-0.31 -1.73,-0.54 -2.1,-0.78 -4.24,-1.64 -6.41,-2.16 -1.7,-0.4 -2.01,-0.33 -2.01,-2.52 0,-3.94 2.07,-6.08 2.95,-9.39 0.76,-2.83 0.63,-3.78 2.08,-6.24 0.52,-0.89 0.97,-1.82 1.36,-2.92 1.05,-2.94 1.42,-5.7 1.42,-8.91 0,-1.16 -0.54,-2.08 -0.67,-3.1 -0.49,-4.16 2.16,-10.52 0.13,-16.27 -0.17,-0.48 -0.38,-1 -0.63,-1.64 -1.05,-2.74 -3.75,-5.89 -4.78,-6.81 -3.34,-2.98 -8.69,-4.46 -13.24,-4.51 -7.38,-0.09 -8.95,0.49 -15.13,3.81 -1.8,0.97 -4.51,4.88 -5.43,6.92 -0.94,2.11 -1.83,5.04 -1.83,7.99zm17.89 73.07c7.38,0 11.85,-0.21 18.65,-2.27 4.73,-1.43 5.29,-2.18 9.11,-3.74 0.58,-0.24 0.52,-0.19 1.01,-0.5l4.99 -3.32c0.61,-0.43 1.25,-0.88 1.89,-1.39l5.11 -4.72c1.81,-1.82 3.68,-3.84 5.09,-5.99 2.56,-3.95 3.18,-5.02 5.21,-9.16l0.32 -0.68c0.07,-0.16 0.13,-0.36 0.21,-0.55l2.68 -8.65c2.65,-10.32 1.08,-22.86 -3.05,-32.42 -1.59,-3.69 -4.3,-8.59 -6.88,-11.51l-1.85 -2.19c-2.5,-2.92 -5.48,-5.53 -8.55,-7.83 -1.27,-0.95 -2.57,-1.85 -3.95,-2.59l-6.37 -3.21c-13.33,-5.83 -30.29,-5.62 -43.27,0.95l-4.14 2.15c-0.82,0.5 -1.23,0.74 -2.08,1.2l-2.06 1.47c-0.04,0.03 -0.1,0.07 -0.14,0.1l-0.56 0.45c-0.38,0.29 -0.57,0.38 -0.89,0.63l-7.15 6.96c-0.04,0.03 -0.08,0.09 -0.12,0.13 -0.01,0.01 -0.24,0.24 -0.37,0.38 -0.41,0.45 0.15,-0.19 -0.24,0.27 -0.03,0.04 -0.08,0.09 -0.12,0.14l-1.64 1.87c-0.54,0.78 -0.66,1.39 -1.22,2.06 -0.31,0.37 -0.45,0.41 -0.71,0.8l-0.36 0.65c-1.56,2.94 -3.38,5.72 -4.43,8.92 -0.28,0.84 -0.57,1.45 -0.89,2.39 -0.6,1.77 -1.01,3.16 -1.45,5.1 -2.02,8.76 -1.61,18.05 0.89,26.52 0.14,0.47 0.17,0.81 0.32,1.44 0.43,1.71 1.15,3.11 1.84,4.72 0.2,0.45 0.26,0.57 0.47,1.04l2.13 4.17c0.03,0.04 0.07,0.1 0.1,0.15l3.78 5.54c0.34,0.43 0.43,0.59 0.75,1.01 0.29,0.38 0.41,0.51 0.69,0.83 3.37,3.73 6.9,7.05 11.01,9.9l6.89 3.94c1.92,0.95 3.83,1.49 5.82,2.24 3.82,1.45 9.49,2.6 13.53,2.6z"/>
 </g>
</svg>
